<svg width="131" height="187" viewBox="0 0 131 187" fill="none" xmlns="http://www.w3.org/2000/svg">
<path d="M23.1179 135H3.4304L39.2756 33.1818H62.0455L97.9403 135H78.2528L51.0582 54.0625H50.2628L23.1179 135ZM23.7642 95.0781H77.4574V109.893H23.7642V95.0781Z" fill="#DC143C"/>
<path d="M108.511 94.8107C107.653 92.1178 106.499 89.706 105.049 87.5753C103.628 85.415 101.927 83.5803 99.9439 82.071C97.9612 80.5322 95.6973 79.3633 93.1523 78.5643C90.637 77.7653 87.87 77.3658 84.8516 77.3658C79.732 77.3658 75.1155 78.6826 71.0021 81.3164C66.8887 83.9502 63.6335 87.812 61.2365 92.902C58.8691 97.9624 57.6854 104.162 57.6854 111.501C57.6854 118.87 58.8839 125.099 61.2809 130.189C63.6779 135.279 66.9627 139.141 71.1353 141.775C75.3079 144.408 80.0575 145.725 85.3842 145.725C90.3262 145.725 94.632 144.719 98.3015 142.707C102.001 140.694 104.856 137.853 106.869 134.184C108.911 130.485 109.931 126.135 109.931 121.134L113.483 121.799H87.4705V110.48H123.204V120.823C123.204 128.458 121.576 135.087 118.321 140.709C115.095 146.302 110.627 150.623 104.915 153.671C99.2337 156.719 92.7232 158.243 85.3842 158.243C77.1574 158.243 69.9368 156.349 63.7223 152.561C57.5374 148.773 52.7138 143.402 49.2514 136.448C45.7891 129.464 44.0579 121.178 44.0579 111.59C44.0579 104.34 45.064 97.8292 47.0763 92.0586C49.0887 86.288 51.9148 81.3904 55.5547 77.3658C59.2242 73.3116 63.5299 70.2191 68.4719 68.0884C73.4435 65.9281 78.8738 64.848 84.7628 64.848C89.6752 64.848 94.2473 65.573 98.4791 67.0231C102.74 68.4731 106.528 70.5298 109.843 73.1932C113.187 75.8565 115.954 79.023 118.143 82.6925C120.333 86.3324 121.813 90.3718 122.582 94.8107H108.511Z" fill="url(#paint0_linear_470_20)"/>
<rect x="71.625" y="60.4541" width="32" height="17.4111" transform="rotate(70.565 71.625 60.4541)" fill="#DC143C"/>
<rect x="83.9727" y="95.8042" width="32" height="17.9997" transform="rotate(70.565 83.9727 95.8042)" fill="#DC143C"/>
<defs>
<linearGradient id="paint0_linear_470_20" x1="84" y1="36" x2="84" y2="187" gradientUnits="userSpaceOnUse">
<stop stop-color="#770737"/>
<stop offset="0.32" stop-color="#7A0738"/>
<stop offset="0.625" stop-color="#A60A4D"/>
<stop offset="0.66" stop-color="#A60A4D"/>
<stop offset="1" stop-color="#DD0D66"/>
</linearGradient>
</defs>
</svg>
