<svg width="114" height="164" viewBox="0 0 114 164" fill="none" xmlns="http://www.w3.org/2000/svg">
<path d="M19.8153 116H2.94034L33.6648 28.7273H53.1818L83.9489 116H67.0739L43.7642 46.625H43.0824L19.8153 116ZM20.3693 81.7812H66.392V94.4801H20.3693V81.7812Z" fill="#DC143C"/>
<path d="M93.9297 83.2734C93.1745 80.9036 92.1589 78.7812 90.8828 76.9062C89.6328 75.0052 88.1354 73.3906 86.3906 72.0625C84.6458 70.7083 82.6536 69.6797 80.4141 68.9766C78.2005 68.2734 75.7656 67.9219 73.1094 67.9219C68.6042 67.9219 64.5417 69.0807 60.9219 71.3984C57.3021 73.7161 54.4375 77.1146 52.3281 81.5937C50.2448 86.0469 49.2031 91.5026 49.2031 97.9609C49.2031 104.445 50.2578 109.927 52.3672 114.406C54.4766 118.885 57.3672 122.284 61.0391 124.602C64.7109 126.919 68.8906 128.078 73.5781 128.078C77.9271 128.078 81.7161 127.193 84.9453 125.422C88.2005 123.651 90.7135 121.151 92.4844 117.922C94.2813 114.667 95.1797 110.839 95.1797 106.438L98.3047 107.023H75.4141V97.0625H106.859V106.164C106.859 112.883 105.427 118.716 102.563 123.664C99.724 128.586 95.7917 132.388 90.7656 135.07C85.7656 137.753 80.0365 139.094 73.5781 139.094C66.3385 139.094 59.9844 137.427 54.5156 134.094C49.0729 130.76 44.8281 126.034 41.7813 119.914C38.7344 113.768 37.2109 106.477 37.2109 98.0391C37.2109 91.6589 38.0964 85.9297 39.8672 80.8516C41.638 75.7734 44.125 71.4635 47.3281 67.9219C50.5573 64.3542 54.3464 61.6328 58.6953 59.7578C63.0703 57.8568 67.849 56.9062 73.0313 56.9062C77.3542 56.9062 81.3776 57.5443 85.1016 58.8203C88.8516 60.0964 92.1849 61.9062 95.1016 64.25C98.0443 66.5937 100.479 69.3802 102.406 72.6094C104.333 75.8125 105.635 79.3672 106.313 83.2734H93.9297Z" fill="url(#paint0_linear_470_20)"/>
<rect x="63.2891" y="57.3979" width="32" height="15.0688" transform="rotate(70.565 63.2891 57.3979)" fill="#DC143C"/>
<rect x="71.3672" y="80.5811" width="32" height="15.2355" transform="rotate(70.565 71.3672 80.5811)" fill="#DC143C"/>
<defs>
<linearGradient id="paint0_linear_470_20" x1="72.5" y1="31" x2="72.5" y2="164" gradientUnits="userSpaceOnUse">
<stop stop-color="#770737"/>
<stop offset="0.32" stop-color="#7A0738"/>
<stop offset="0.625" stop-color="#A60A4D"/>
<stop offset="0.66" stop-color="#A60A4D"/>
<stop offset="1" stop-color="#DD0D66"/>
</linearGradient>
</defs>
</svg>
