<svg width="74" height="106" viewBox="0 0 74 106" fill="none" xmlns="http://www.w3.org/2000/svg">
<path d="M13.2102 78H1.96023L22.4432 19.8182H35.4545L55.9659 78H44.7159L29.1761 31.75H28.7216L13.2102 78ZM13.5795 55.1875H44.2614V63.6534H13.5795V55.1875Z" fill="#DC143C"/>
<path d="M61.0462 54.174C60.5656 52.666 59.9193 51.3153 59.1072 50.1222C58.3118 48.9124 57.3589 47.8849 56.2486 47.0398C55.1383 46.178 53.8705 45.5234 52.4453 45.076C51.0367 44.6286 49.4872 44.4048 47.7969 44.4048C44.9299 44.4048 42.3447 45.1423 40.0412 46.6172C37.7377 48.0921 35.9148 50.2547 34.5724 53.1051C33.2467 55.9389 32.5838 59.4107 32.5838 63.5206C32.5838 67.647 33.255 71.1354 34.5973 73.9858C35.9396 76.8362 37.7791 78.9988 40.1158 80.4737C42.4524 81.9486 45.1122 82.6861 48.0952 82.6861C50.8627 82.6861 53.2739 82.1226 55.3288 80.9957C57.4003 79.8688 58.9995 78.2779 60.1264 76.223C61.2699 74.1515 61.8416 71.7154 61.8416 68.9148L63.8303 69.2876H49.2635V62.9489H69.2741V68.7408C69.2741 73.0163 68.3627 76.7285 66.5398 79.8771C64.7334 83.0092 62.2311 85.4287 59.0327 87.1357C55.8509 88.8426 52.205 89.696 48.0952 89.696C43.4882 89.696 39.4446 88.6354 35.9645 86.5142C32.5009 84.393 29.7997 81.3852 27.8608 77.4908C25.9219 73.5798 24.9524 68.9396 24.9524 63.5703C24.9524 59.5102 25.5159 55.8643 26.6428 52.6328C27.7696 49.4013 29.3523 46.6586 31.3906 44.4048C33.4455 42.1345 35.8568 40.4027 38.6243 39.2095C41.4084 37.9998 44.4493 37.3949 47.7472 37.3949C50.4981 37.3949 53.0585 37.8009 55.4283 38.6129C57.8146 39.425 59.9358 40.5767 61.7919 42.0682C63.6645 43.5597 65.214 45.3329 66.4403 47.3878C67.6667 49.4261 68.4953 51.6882 68.9261 54.174H61.0462Z" fill="url(#paint0_linear_470_20)"/>
<rect x="39.5898" y="31.5718" width="41.6454" height="9.93369" transform="rotate(70.565 39.5898 31.5718)" fill="#DC143C"/>
<rect x="38.0977" y="40.0132" width="11.146" height="5.78473" transform="rotate(71.4264 38.0977 40.0132)" fill="#DC143C"/>
<defs>
<linearGradient id="paint0_linear_470_20" x1="47.5" y1="21" x2="47.5" y2="106" gradientUnits="userSpaceOnUse">
<stop stop-color="#770737"/>
<stop offset="0.32" stop-color="#7A0738"/>
<stop offset="0.625" stop-color="#A60A4D"/>
<stop offset="0.66" stop-color="#A60A4D"/>
<stop offset="1" stop-color="#DD0D66"/>
</linearGradient>
</defs>
</svg>
