<svg width="58" height="83" viewBox="0 0 58 83" fill="none" xmlns="http://www.w3.org/2000/svg">
<path d="M10.7333 63H1.59268L18.2351 15.7273H28.8068L45.4723 63H36.3317L23.7056 25.4219H23.3363L10.7333 63ZM11.0334 44.4648H35.9624V51.3434H11.0334V44.4648Z" fill="#DC143C"/>
<path d="M48.6044 46.1243C48.2611 45.0471 47.7995 44.0824 47.2195 43.2301C46.6513 42.366 45.9706 41.6321 45.1776 41.0284C44.3845 40.4129 43.4789 39.9453 42.4609 39.6257C41.4548 39.3061 40.348 39.1463 39.1406 39.1463C37.0928 39.1463 35.2462 39.6731 33.6009 40.7266C31.9555 41.7801 30.6534 43.3248 29.6946 45.3608C28.7476 47.3849 28.2741 49.8648 28.2741 52.8004C28.2741 55.7479 28.7536 58.2396 29.7124 60.2756C30.6712 62.3116 31.9851 63.8563 33.6541 64.9098C35.3232 65.9633 37.223 66.4901 39.3537 66.4901C41.3305 66.4901 43.0528 66.0876 44.5206 65.2827C46.0002 64.4777 47.1425 63.3414 47.9474 61.8736C48.7642 60.3939 49.1726 58.6539 49.1726 56.6534L50.593 56.9197H40.1882V52.392H54.4815V56.5291C54.4815 59.5831 53.8305 62.2346 52.5284 64.4837C51.2382 66.7209 49.4508 68.4491 47.1662 69.6683C44.8935 70.8875 42.2893 71.4972 39.3537 71.4972C36.063 71.4972 33.1747 70.7396 30.6889 69.2244C28.215 67.7093 26.2855 65.5608 24.9006 62.7791C23.5156 59.9856 22.8232 56.6712 22.8232 52.8359C22.8232 49.9358 23.2256 47.3317 24.0305 45.0234C24.8355 42.7152 25.9659 40.7562 27.4219 39.1463C28.8897 37.5246 30.612 36.2876 32.5888 35.4354C34.5774 34.5713 36.7495 34.1392 39.1051 34.1392C41.0701 34.1392 42.8989 34.4292 44.5916 35.0092C46.2962 35.5893 47.8113 36.4119 49.1371 37.4773C50.4747 38.5426 51.5814 39.8092 52.4574 41.277C53.3333 42.733 53.9252 44.3487 54.233 46.1243H48.6044Z" fill="url(#paint0_linear_475_20)"/>
<rect x="31.7969" y="24.2012" width="37.4332" height="7.8743" transform="rotate(70.565 31.7969 24.2012)" fill="#DC143C"/>
<rect x="31.4844" y="33" width="11.146" height="4.9535" transform="rotate(71.4264 31.4844 33)" fill="#DC143C"/>
<defs>
<linearGradient id="paint0_linear_475_20" x1="39" y1="22" x2="39" y2="83" gradientUnits="userSpaceOnUse">
<stop stop-color="#770737"/>
<stop offset="0.32" stop-color="#7A0738"/>
<stop offset="0.625" stop-color="#A60A4D"/>
<stop offset="0.66" stop-color="#A60A4D"/>
<stop offset="1" stop-color="#DD0D66"/>
</linearGradient>
</defs>
</svg>
